<?xml version="1.0" encoding="UTF-8" standalone="no"?>
<!-- Created with Inkscape (http://www.inkscape.org/) -->

<svg
   width="256"
   height="256"
   viewBox="0 0 256 256"
   version="1.1"
   id="svg1"
   xmlns="http://www.w3.org/2000/svg"
   xmlns:svg="http://www.w3.org/2000/svg">
  <defs
     id="defs1" />
  <g
     id="g1"
     transform="translate(-9.9999999e-7,-45.751382)">
    <g
       id="g2"
       transform="translate(0,45.751381)">
      <path
         d="m 227.38694,199.43436 q -5.80482,0 -9.39828,-3.45525 -3.45525,-3.59346 -3.45525,-9.26007 0,-5.6666 3.45525,-9.26006 3.59346,-3.59346 9.39828,-3.59346 5.80481,0 9.26006,3.59346 3.59346,3.59346 3.59346,9.26006 0,5.66661 -3.59346,9.26007 -3.45525,3.45525 -9.26006,3.45525 z"
         id="text2"
         style="font-weight:bold;font-size:106.8px;font-family:'JetBrainsMonoNL Nerd Font Mono';-inkscape-font-specification:'JetBrainsMonoNL Nerd Font Mono, Bold';fill:#ea580c;fill-opacity:1;stroke-width:11.5175;stroke-linecap:round"
         aria-label="." />
      <path
         style="font-weight:bold;font-size:192px;font-family:'JetBrainsMonoNL Nerd Font Mono';-inkscape-font-specification:'JetBrainsMonoNL Nerd Font Mono, Bold';fill:#ea580c;fill-opacity:1;stroke-width:20.7056;stroke-linecap:round"
         d="m 72.90703,197.69509 q -26.337538,0 -41.742513,-14.65957 -15.404975,-14.90804 -15.404975,-40.00325 v -31.80382 q 0,-25.343662 15.404975,-40.003235 15.404975,-14.659573 41.742513,-14.659573 26.337533,0 41.74251,14.659573 15.40497,14.659573 15.40497,40.003235 v 31.80382 q 0,25.09521 -15.40497,40.00325 -15.404977,14.65957 -41.74251,14.65957 z m 0,-27.08294 q 12.423367,0 19.13198,-6.70862 6.957086,-6.95709 6.957086,-19.87739 v -33.79156 q 0,-12.920297 -6.957086,-19.628913 -6.708613,-6.957085 -19.13198,-6.957085 -12.423367,0 -19.380452,6.957085 -6.708619,6.708616 -6.708619,19.628913 v 33.79156 q 0,12.9203 6.708619,19.87739 6.957085,6.70862 19.380452,6.70862 z"
         id="text1" />
      <path
         style="font-weight:bold;font-size:192px;font-family:'JetBrainsMonoNL Nerd Font Mono';-inkscape-font-specification:'JetBrainsMonoNL Nerd Font Mono, Bold';fill:#ea580c;fill-opacity:1;stroke-width:20.7056;stroke-linecap:round"
         d="m 164.90206,199.43436 q -17.64118,0 -30.80995,-6.46015 -12.9203,-6.70862 -20.12586,-18.63505 -7.20555,-12.1749 -7.20555,-28.57375 v -34.28849 q 0,-16.398843 7.20555,-28.325273 7.20556,-12.1749 20.12586,-18.63505 13.16877,-6.708619 30.80995,-6.708619 25.59213,0 40.99711,13.417237 15.65344,13.168769 16.39884,36.027765 h -30.56148 q -0.7454,-10.684099 -8.19942,-16.398845 -7.20555,-5.963216 -18.63505,-5.963216 -12.67184,0 -19.87739,6.957083 -7.20555,6.708618 -7.20555,19.380448 v 34.53696 q 0,12.67184 7.20555,19.62892 7.20555,6.95709 19.87739,6.95709 11.67796,0 18.88352,-5.71475 7.20555,-5.96321 7.95095,-16.64731 h 30.56148 q -0.7454,22.85899 -16.39884,36.27623 -15.40498,13.16877 -40.99711,13.16877 z"
         id="path2" />
    </g>
  </g>
</svg>
