<?xml version="1.0" encoding="UTF-8" standalone="no"?>
<!-- Created with Inkscape (http://www.inkscape.org/) -->

<svg
   width="237.07031"
   height="143.60938"
   viewBox="0 0 237.07031 143.60938"
   version="1.1"
   id="svg1"
   xml:space="preserve"
   xmlns="http://www.w3.org/2000/svg"
   xmlns:svg="http://www.w3.org/2000/svg"><defs
     id="defs1" /><g
     id="layer1"
     transform="translate(-68.523437,-64.175781)"><path
       id="path28"
       style="display:none;fill:#ff0000;fill-rule:evenodd"
       d="m 140.32836,64.174907 a 71.804893,71.804893 0 0 0 -71.804688,71.804683 71.804893,71.804893 0 0 0 71.804688,71.80469 71.804893,71.804893 0 0 0 71.80468,-71.80469 71.804893,71.804893 0 0 0 -71.80468,-71.804683 z m 0,24.929688 a 46.873913,46.873913 0 0 1 46.87304,46.874995 46.873913,46.873913 0 0 1 -46.87304,46.87305 46.873913,46.873913 0 0 1 -46.875,-46.87305 46.873913,46.873913 0 0 1 46.875,-46.874995 z" /></g><path
     id="path30"
     style="fill:#000000;fill-rule:evenodd"
     d="M 71.804683,-2.5e-7 A 71.804893,71.804893 0 0 0 5.0000001e-7,71.804689 71.804893,71.804893 0 0 0 71.804683,143.60938 71.804893,71.804893 0 0 0 143.60937,71.804689 71.804893,71.804893 0 0 0 71.804683,-2.5e-7 Z m 118.679687,0 a 71.804893,71.804893 0 0 0 -50.12304,20.64062525 85.763086,85.763086 0 0 1 12.44726,23.556644 46.873913,46.873913 0 0 1 37.67578,-19.267581 46.873913,46.873913 0 0 1 28.89844,9.96875 l 17.6875,-17.6875 A 71.804893,71.804893 0 0 0 190.48437,-2.5e-7 Z M 71.804683,24.929688 A 46.873913,46.873913 0 0 1 118.67773,71.804689 46.873913,46.873913 0 0 1 71.804683,118.67774 46.873913,46.873913 0 0 1 24.929688,71.804689 46.873913,46.873913 0 0 1 71.804683,24.929688 Z m 81.003907,74.480471 a 85.763086,85.763086 0 0 1 -12.44726,23.558591 71.804893,71.804893 0 0 0 50.12304,20.64063 71.804893,71.804893 0 0 0 46.58594,-17.21289 l -17.76758,-17.76758 a 46.873913,46.873913 0 0 1 -28.81836,10.04883 46.873913,46.873913 0 0 1 -37.67578,-19.267581 z" /></svg>
